<svg width="24" height="24" viewBox="0 0 24 24" fill="none" xmlns="http://www.w3.org/2000/svg">
<path d="M13 1V4.07C16.95 4.56 20 7.92 20 12C20 13.4074 19.6371 14.729 18.9995 15.8768C17.6347 18.3358 15.0117 20 12 20C7.58172 20 4 16.4183 4 12H6C6 12.3407 6.0284 12.6748 6.08296 13H6.09001C6.20601 13.7292 6.46621 14.4309 6.84783 15.0767C7.27491 15.7903 7.84606 16.4079 8.52109 16.8891L8.54001 16.87C9.29001 17.41 10.13 17.75 11 17.9V17.917C11.3252 17.9716 11.6593 18 12 18C12.3407 18 12.6748 17.9716 13 17.917V17.91C15.7069 17.4525 17.796 15.1963 17.9859 12.4141C17.9953 12.2773 18 12.1392 18 12C18 9.03 15.84 6.57 13 6.09V10L8.45001 5.55L13 1Z" fill="black"/>
</svg>
